<svg version="1.1" id="Layer_1" xmlns="http://www.w3.org/2000/svg" xmlns:xlink="http://www.w3.org/1999/xlink" x="0px" y="0px"
	 width="100%" viewBox="0 0 109 83" enable-background="new 0 0 109 83" xml:space="preserve">
<path fill="#FFFEFE" opacity="1.000000" stroke="none" 
	d="
M72.000000,84.000000 
	C48.000004,84.000000 24.500008,84.000000 1.000010,84.000000 
	C1.000006,56.333344 1.000006,28.666685 1.000003,1.000021 
	C37.333317,1.000014 73.666634,1.000014 109.999969,1.000007 
	C109.999977,28.666647 109.999977,56.333294 109.999985,83.999969 
	C97.500000,84.000000 85.000000,84.000000 72.000000,84.000000 
M46.756832,73.801460 
	C49.246212,73.919174 51.742439,74.218422 54.223843,74.124771 
	C68.865471,73.572174 81.260773,62.347538 83.197922,47.992359 
	C85.265060,32.673874 76.666412,18.642572 62.360241,13.989380 
	C45.864494,8.624010 27.755266,18.043833 23.042294,34.441277 
	C18.025019,51.897453 27.890192,68.726593 46.756832,73.801460 
z"/>
<path fill="#D81515" opacity="1.000000" stroke="none" 
	d="
M46.368416,73.686249 
	C27.890192,68.726593 18.025019,51.897453 23.042294,34.441277 
	C27.755266,18.043833 45.864494,8.624010 62.360241,13.989380 
	C76.666412,18.642572 85.265060,32.673874 83.197922,47.992359 
	C81.260773,62.347538 68.865471,73.572174 54.223843,74.124771 
	C51.742439,74.218422 49.246212,73.919174 46.368416,73.686249 
M62.488869,17.724451 
	C50.575737,13.896943 39.220078,16.555685 32.051460,25.231333 
	C24.619473,34.225723 22.773586,44.291473 27.892242,55.006969 
	C33.068871,65.843819 42.029430,71.124603 53.956127,70.852814 
	C66.363892,70.570045 77.131500,61.153599 79.684654,48.878120 
	C82.324425,36.186192 75.852791,24.015839 62.488869,17.724451 
z"/>
<path fill="#FFFCFC" opacity="1.000000" stroke="none" 
	d="
M62.864418,17.838600 
	C75.852791,24.015839 82.324425,36.186192 79.684654,48.878120 
	C77.131500,61.153599 66.363892,70.570045 53.956127,70.852814 
	C42.029430,71.124603 33.068871,65.843819 27.892242,55.006969 
	C22.773586,44.291473 24.619473,34.225723 32.051460,25.231333 
	C39.220078,16.555685 50.575737,13.896943 62.864418,17.838600 
M50.645111,47.266899 
	C48.857304,49.821098 47.498299,48.827736 45.549908,47.135815 
	C43.391312,45.261372 42.213032,41.307888 37.113007,42.439541 
	C41.531334,46.284237 45.305988,49.568832 49.307114,53.050491 
	C55.524742,49.151047 66.909111,36.397678 66.424713,31.558336 
	C60.882748,37.074516 56.018551,41.916084 50.645111,47.266899 
z"/>
<path fill="#D81919" opacity="1.000000" stroke="none" 
	d="
M50.899734,47.012276 
	C56.018551,41.916084 60.882748,37.074516 66.424713,31.558336 
	C66.909111,36.397678 55.524742,49.151047 49.307114,53.050491 
	C45.305988,49.568832 41.531334,46.284237 37.113007,42.439541 
	C42.213032,41.307888 43.391312,45.261372 45.549908,47.135815 
	C47.498299,48.827736 48.857304,49.821098 50.899734,47.012276 
z"/>
</svg>